<svg xmlns="http://www.w3.org/2000/svg" viewBox="0 0 124.33 124.33">
  <g fill="#1c1c1e">
    <path d="M61.65,107.16c0-11.93,9.95-35.37,29.85-70.32-10.41,11.13-21.94,27.06-34.59,47.81-2.78,4.51-5.08,7.57-6.89,9.17-1.77,1.56-3.46,2.34-5.06,2.34s-2.78-.7-3.54-2.09c-.51-.93-.76-2-.76-3.23,0-10.54,6.26-27.13,18.78-49.77-4.26,4.34-8.35,9.38-12.27,15.11-7.12,10.58-13.49,21.44-19.1,32.57-.58,1.17-1.19,2.44-1.82,3.77,8.56,10.11,21.3,16.57,35.57,16.67-.1-.62-.16-1.29-.16-2.04Z"/>
    <path d="M51.91,41.4c5.19-6.49,8.77-10.71,10.75-12.65,2.07-1.98,3.77-2.97,5.12-2.97.84,0,1.67.38,2.47,1.14.97.89,1.46,1.9,1.46,3.04,0,1.26-.89,3.35-2.66,6.26-5.06,8.26-9.72,17.54-13.98,27.82-3.67,9.27-6.03,17.14-7.08,23.59,1.35-1.98,4.47-6.74,9.36-14.29,4.17-6.45,10.83-15.75,19.98-27.89,5.31-7.04,10.12-12.94,14.42-17.71.39-.43.77-.82,1.14-1.19-8.24-7.12-18.97-11.43-30.72-11.43-25.98,0-47.05,21.06-47.05,47.05,0,9.03,2.55,17.45,6.95,24.62,8.56-16.01,18.49-31.14,29.84-45.39Z"/>
    <path d="M99.78,33.91c-.44.81-2.15,3.83-5.13,9.07-5.56,9.86-9.34,16.91-11.32,21.12-5.44,11.55-9.42,21.4-11.95,29.53-1.48,4.85-2.21,8.41-2.21,10.69,0,.51.04,1.03.13,1.58.18,1.4.28,2.3.31,2.73,22.45-3.57,39.61-23.01,39.61-46.46,0-10.6-3.51-20.39-9.43-28.26Z"/>
    <path d="M62.17,124.33C27.89,124.33,0,96.44,0,62.17S27.89,0,62.17,0s62.17,27.89,62.17,62.17-27.89,62.17-62.17,62.17ZM62.17,8c-29.87,0-54.17,24.3-54.17,54.17s24.3,54.17,54.17,54.17,54.17-24.3,54.17-54.17S92.03,8,62.17,8Z"/>
  </g>
</svg>
